<svg class="rich-terminal" viewBox="0 0 1458 830.8" xmlns="http://www.w3.org/2000/svg">
    <!-- Generated with Rich https://www.textualize.io -->
    <style>

    @font-face {
        font-family: "Fira Code";
        src: local("FiraCode-Regular"),
                url("https://cdnjs.cloudflare.com/ajax/libs/firacode/6.2.0/woff2/FiraCode-Regular.woff2") format("woff2"),
                url("https://cdnjs.cloudflare.com/ajax/libs/firacode/6.2.0/woff/FiraCode-Regular.woff") format("woff");
        font-style: normal;
        font-weight: 400;
    }
    @font-face {
        font-family: "Fira Code";
        src: local("FiraCode-Bold"),
                url("https://cdnjs.cloudflare.com/ajax/libs/firacode/6.2.0/woff2/FiraCode-Bold.woff2") format("woff2"),
                url("https://cdnjs.cloudflare.com/ajax/libs/firacode/6.2.0/woff/FiraCode-Bold.woff") format("woff");
        font-style: bold;
        font-weight: 700;
    }

    .terminal-2197858391-matrix {
        font-family: Fira Code, monospace;
        font-size: 20px;
        line-height: 24.4px;
        font-variant-east-asian: full-width;
    }

    .terminal-2197858391-title {
        font-size: 18px;
        font-weight: bold;
        font-family: arial;
    }

    .terminal-2197858391-r1 { fill: #eaeaea;font-weight: bold }
.terminal-2197858391-r2 { fill: #c5c8c6 }
.terminal-2197858391-r3 { fill: #e0e0e0 }
.terminal-2197858391-r4 { fill: #1e1e1e }
.terminal-2197858391-r5 { fill: #656565 }
.terminal-2197858391-r6 { fill: #121212 }
.terminal-2197858391-r7 { fill: #797979 }
.terminal-2197858391-r8 { fill: #2d2d2d }
.terminal-2197858391-r9 { fill: #e0e0e0;font-weight: bold }
.terminal-2197858391-r10 { fill: #0d0d0d }
.terminal-2197858391-r11 { fill: #595959;font-style: italic; }
.terminal-2197858391-r12 { fill: #191919 }
.terminal-2197858391-r13 { fill: #252525 }
.terminal-2197858391-r14 { fill: #6f6f6f;font-weight: bold }
.terminal-2197858391-r15 { fill: #151515 }
    </style>

    <defs>
    <clipPath id="terminal-2197858391-clip-terminal">
      <rect x="0" y="0" width="1438.6" height="779.8" />
    </clipPath>
    <clipPath id="terminal-2197858391-line-0">
    <rect x="0" y="1.5" width="1439.6" height="24.65"/>
            </clipPath>
<clipPath id="terminal-2197858391-line-1">
    <rect x="0" y="25.9" width="1439.6" height="24.65"/>
            </clipPath>
<clipPath id="terminal-2197858391-line-2">
    <rect x="0" y="50.3" width="1439.6" height="24.65"/>
            </clipPath>
<clipPath id="terminal-2197858391-line-3">
    <rect x="0" y="74.7" width="1439.6" height="24.65"/>
            </clipPath>
<clipPath id="terminal-2197858391-line-4">
    <rect x="0" y="99.1" width="1439.6" height="24.65"/>
            </clipPath>
<clipPath id="terminal-2197858391-line-5">
    <rect x="0" y="123.5" width="1439.6" height="24.65"/>
            </clipPath>
<clipPath id="terminal-2197858391-line-6">
    <rect x="0" y="147.9" width="1439.6" height="24.65"/>
            </clipPath>
<clipPath id="terminal-2197858391-line-7">
    <rect x="0" y="172.3" width="1439.6" height="24.65"/>
            </clipPath>
<clipPath id="terminal-2197858391-line-8">
    <rect x="0" y="196.7" width="1439.6" height="24.65"/>
            </clipPath>
<clipPath id="terminal-2197858391-line-9">
    <rect x="0" y="221.1" width="1439.6" height="24.65"/>
            </clipPath>
<clipPath id="terminal-2197858391-line-10">
    <rect x="0" y="245.5" width="1439.6" height="24.65"/>
            </clipPath>
<clipPath id="terminal-2197858391-line-11">
    <rect x="0" y="269.9" width="1439.6" height="24.65"/>
            </clipPath>
<clipPath id="terminal-2197858391-line-12">
    <rect x="0" y="294.3" width="1439.6" height="24.65"/>
            </clipPath>
<clipPath id="terminal-2197858391-line-13">
    <rect x="0" y="318.7" width="1439.6" height="24.65"/>
            </clipPath>
<clipPath id="terminal-2197858391-line-14">
    <rect x="0" y="343.1" width="1439.6" height="24.65"/>
            </clipPath>
<clipPath id="terminal-2197858391-line-15">
    <rect x="0" y="367.5" width="1439.6" height="24.65"/>
            </clipPath>
<clipPath id="terminal-2197858391-line-16">
    <rect x="0" y="391.9" width="1439.6" height="24.65"/>
            </clipPath>
<clipPath id="terminal-2197858391-line-17">
    <rect x="0" y="416.3" width="1439.6" height="24.65"/>
            </clipPath>
<clipPath id="terminal-2197858391-line-18">
    <rect x="0" y="440.7" width="1439.6" height="24.65"/>
            </clipPath>
<clipPath id="terminal-2197858391-line-19">
    <rect x="0" y="465.1" width="1439.6" height="24.65"/>
            </clipPath>
<clipPath id="terminal-2197858391-line-20">
    <rect x="0" y="489.5" width="1439.6" height="24.65"/>
            </clipPath>
<clipPath id="terminal-2197858391-line-21">
    <rect x="0" y="513.9" width="1439.6" height="24.65"/>
            </clipPath>
<clipPath id="terminal-2197858391-line-22">
    <rect x="0" y="538.3" width="1439.6" height="24.65"/>
            </clipPath>
<clipPath id="terminal-2197858391-line-23">
    <rect x="0" y="562.7" width="1439.6" height="24.65"/>
            </clipPath>
<clipPath id="terminal-2197858391-line-24">
    <rect x="0" y="587.1" width="1439.6" height="24.65"/>
            </clipPath>
<clipPath id="terminal-2197858391-line-25">
    <rect x="0" y="611.5" width="1439.6" height="24.65"/>
            </clipPath>
<clipPath id="terminal-2197858391-line-26">
    <rect x="0" y="635.9" width="1439.6" height="24.65"/>
            </clipPath>
<clipPath id="terminal-2197858391-line-27">
    <rect x="0" y="660.3" width="1439.6" height="24.65"/>
            </clipPath>
<clipPath id="terminal-2197858391-line-28">
    <rect x="0" y="684.7" width="1439.6" height="24.65"/>
            </clipPath>
<clipPath id="terminal-2197858391-line-29">
    <rect x="0" y="709.1" width="1439.6" height="24.65"/>
            </clipPath>
<clipPath id="terminal-2197858391-line-30">
    <rect x="0" y="733.5" width="1439.6" height="24.65"/>
            </clipPath>
    </defs>

    <rect fill="#292929" stroke="rgba(255,255,255,0.35)" stroke-width="1" x="1" y="1" width="1456" height="828.8" rx="8"/><text class="terminal-2197858391-title" fill="#c5c8c6" text-anchor="middle" x="728" y="27">CCCB&#160;Benchmark</text>
            <g transform="translate(26,22)">
            <circle cx="0" cy="0" r="7" fill="#ff5f57"/>
            <circle cx="22" cy="0" r="7" fill="#febc2e"/>
            <circle cx="44" cy="0" r="7" fill="#28c840"/>
            </g>
        
    <g transform="translate(9, 41)" clip-path="url(#terminal-2197858391-clip-terminal)">
    <rect fill="#656565" x="0" y="1.5" width="402.6" height="24.65" shape-rendering="crispEdges"/><rect fill="#1e1e1e" x="402.6" y="1.5" width="1037" height="24.65" shape-rendering="crispEdges"/><rect fill="#656565" x="0" y="25.9" width="402.6" height="24.65" shape-rendering="crispEdges"/><rect fill="#1e1e1e" x="402.6" y="25.9" width="1037" height="24.65" shape-rendering="crispEdges"/><rect fill="#656565" x="0" y="50.3" width="402.6" height="24.65" shape-rendering="crispEdges"/><rect fill="#1e1e1e" x="402.6" y="50.3" width="1037" height="24.65" shape-rendering="crispEdges"/><rect fill="#1e1e1e" x="0" y="74.7" width="341.6" height="24.65" shape-rendering="crispEdges"/><rect fill="#1e1e1e" x="341.6" y="74.7" width="378.2" height="24.65" shape-rendering="crispEdges"/><rect fill="#1e1e1e" x="719.8" y="74.7" width="317.2" height="24.65" shape-rendering="crispEdges"/><rect fill="#1e1e1e" x="1037" y="74.7" width="402.6" height="24.65" shape-rendering="crispEdges"/><rect fill="#656565" x="0" y="99.1" width="12.2" height="24.65" shape-rendering="crispEdges"/><rect fill="#272727" x="12.2" y="99.1" width="695.4" height="24.65" shape-rendering="crispEdges"/><rect fill="#1e1e1e" x="707.6" y="99.1" width="12.2" height="24.65" shape-rendering="crispEdges"/><rect fill="#1e1e1e" x="719.8" y="99.1" width="719.8" height="24.65" shape-rendering="crispEdges"/><rect fill="#656565" x="0" y="123.5" width="12.2" height="24.65" shape-rendering="crispEdges"/><rect fill="#272727" x="12.2" y="123.5" width="24.4" height="24.65" shape-rendering="crispEdges"/><rect fill="#e0e0e0" x="36.6" y="123.5" width="12.2" height="24.65" shape-rendering="crispEdges"/><rect fill="#272727" x="48.8" y="123.5" width="170.8" height="24.65" shape-rendering="crispEdges"/><rect fill="#272727" x="219.6" y="123.5" width="463.6" height="24.65" shape-rendering="crispEdges"/><rect fill="#272727" x="683.2" y="123.5" width="24.4" height="24.65" shape-rendering="crispEdges"/><rect fill="#1e1e1e" x="707.6" y="123.5" width="12.2" height="24.65" shape-rendering="crispEdges"/><rect fill="#1e1e1e" x="719.8" y="123.5" width="719.8" height="24.65" shape-rendering="crispEdges"/><rect fill="#656565" x="0" y="147.9" width="12.2" height="24.65" shape-rendering="crispEdges"/><rect fill="#272727" x="12.2" y="147.9" width="695.4" height="24.65" shape-rendering="crispEdges"/><rect fill="#1e1e1e" x="707.6" y="147.9" width="12.2" height="24.65" shape-rendering="crispEdges"/><rect fill="#1e1e1e" x="719.8" y="147.9" width="719.8" height="24.65" shape-rendering="crispEdges"/><rect fill="#1e1e1e" x="0" y="172.3" width="195.2" height="24.65" shape-rendering="crispEdges"/><rect fill="#1e1e1e" x="195.2" y="172.3" width="524.6" height="24.65" shape-rendering="crispEdges"/><rect fill="#1e1e1e" x="719.8" y="172.3" width="719.8" height="24.65" shape-rendering="crispEdges"/><rect fill="#1e1e1e" x="0" y="196.7" width="12.2" height="24.65" shape-rendering="crispEdges"/><rect fill="#1e1e1e" x="12.2" y="196.7" width="158.6" height="24.65" shape-rendering="crispEdges"/><rect fill="#1e1e1e" x="170.8" y="196.7" width="24.4" height="24.65" shape-rendering="crispEdges"/><rect fill="#1e1e1e" x="195.2" y="196.7" width="524.6" height="24.65" shape-rendering="crispEdges"/><rect fill="#1e1e1e" x="719.8" y="196.7" width="719.8" height="24.65" shape-rendering="crispEdges"/><rect fill="#1e1e1e" x="0" y="221.1" width="195.2" height="24.65" shape-rendering="crispEdges"/><rect fill="#1e1e1e" x="195.2" y="221.1" width="524.6" height="24.65" shape-rendering="crispEdges"/><rect fill="#1e1e1e" x="719.8" y="221.1" width="719.8" height="24.65" shape-rendering="crispEdges"/><rect fill="#1e1e1e" x="0" y="245.5" width="0" height="24.65" shape-rendering="crispEdges"/><rect fill="#1e1e1e" x="0" y="245.5" width="719.8" height="24.65" shape-rendering="crispEdges"/><rect fill="#1e1e1e" x="719.8" y="245.5" width="719.8" height="24.65" shape-rendering="crispEdges"/><rect fill="#1e1e1e" x="0" y="269.9" width="719.8" height="24.65" shape-rendering="crispEdges"/><rect fill="#1e1e1e" x="719.8" y="269.9" width="719.8" height="24.65" shape-rendering="crispEdges"/><rect fill="#1e1e1e" x="0" y="294.3" width="719.8" height="24.65" shape-rendering="crispEdges"/><rect fill="#1e1e1e" x="719.8" y="294.3" width="719.8" height="24.65" shape-rendering="crispEdges"/><rect fill="#1e1e1e" x="0" y="318.7" width="719.8" height="24.65" shape-rendering="crispEdges"/><rect fill="#1e1e1e" x="719.8" y="318.7" width="719.8" height="24.65" shape-rendering="crispEdges"/><rect fill="#1e1e1e" x="0" y="343.1" width="719.8" height="24.65" shape-rendering="crispEdges"/><rect fill="#1e1e1e" x="719.8" y="343.1" width="719.8" height="24.65" shape-rendering="crispEdges"/><rect fill="#1e1e1e" x="0" y="367.5" width="183" height="24.65" shape-rendering="crispEdges"/><rect fill="#1e1e1e" x="183" y="367.5" width="1256.6" height="24.65" shape-rendering="crispEdges"/><rect fill="#191919" x="0" y="391.9" width="12.2" height="24.65" shape-rendering="crispEdges"/><rect fill="#1e1e1e" x="12.2" y="391.9" width="1415.2" height="24.65" shape-rendering="crispEdges"/><rect fill="#1e1e1e" x="1427.4" y="391.9" width="12.2" height="24.65" shape-rendering="crispEdges"/><rect fill="#191919" x="0" y="416.3" width="12.2" height="24.65" shape-rendering="crispEdges"/><rect fill="#1e1e1e" x="12.2" y="416.3" width="12.2" height="24.65" shape-rendering="crispEdges"/><rect fill="#262626" x="24.4" y="416.3" width="12.2" height="24.65" shape-rendering="crispEdges"/><rect fill="#262626" x="36.6" y="416.3" width="1378.6" height="24.65" shape-rendering="crispEdges"/><rect fill="#1e1e1e" x="1415.2" y="416.3" width="12.2" height="24.65" shape-rendering="crispEdges"/><rect fill="#1e1e1e" x="1427.4" y="416.3" width="12.2" height="24.65" shape-rendering="crispEdges"/><rect fill="#191919" x="0" y="440.7" width="12.2" height="24.65" shape-rendering="crispEdges"/><rect fill="#1e1e1e" x="12.2" y="440.7" width="12.2" height="24.65" shape-rendering="crispEdges"/><rect fill="#1e1e1e" x="24.4" y="440.7" width="1390.8" height="24.65" shape-rendering="crispEdges"/><rect fill="#1e1e1e" x="1415.2" y="440.7" width="12.2" height="24.65" shape-rendering="crispEdges"/><rect fill="#1e1e1e" x="1427.4" y="440.7" width="12.2" height="24.65" shape-rendering="crispEdges"/><rect fill="#191919" x="0" y="465.1" width="12.2" height="24.65" shape-rendering="crispEdges"/><rect fill="#1e1e1e" x="12.2" y="465.1" width="12.2" height="24.65" shape-rendering="crispEdges"/><rect fill="#1e1e1e" x="24.4" y="465.1" width="1390.8" height="24.65" shape-rendering="crispEdges"/><rect fill="#1e1e1e" x="1415.2" y="465.1" width="12.2" height="24.65" shape-rendering="crispEdges"/><rect fill="#1e1e1e" x="1427.4" y="465.1" width="12.2" height="24.65" shape-rendering="crispEdges"/><rect fill="#191919" x="0" y="489.5" width="12.2" height="24.65" shape-rendering="crispEdges"/><rect fill="#1e1e1e" x="12.2" y="489.5" width="12.2" height="24.65" shape-rendering="crispEdges"/><rect fill="#1e1e1e" x="24.4" y="489.5" width="1390.8" height="24.65" shape-rendering="crispEdges"/><rect fill="#1e1e1e" x="1415.2" y="489.5" width="12.2" height="24.65" shape-rendering="crispEdges"/><rect fill="#1e1e1e" x="1427.4" y="489.5" width="12.2" height="24.65" shape-rendering="crispEdges"/><rect fill="#191919" x="0" y="513.9" width="12.2" height="24.65" shape-rendering="crispEdges"/><rect fill="#1e1e1e" x="12.2" y="513.9" width="12.2" height="24.65" shape-rendering="crispEdges"/><rect fill="#1e1e1e" x="24.4" y="513.9" width="1390.8" height="24.65" shape-rendering="crispEdges"/><rect fill="#1e1e1e" x="1415.2" y="513.9" width="12.2" height="24.65" shape-rendering="crispEdges"/><rect fill="#1e1e1e" x="1427.4" y="513.9" width="12.2" height="24.65" shape-rendering="crispEdges"/><rect fill="#191919" x="0" y="538.3" width="12.2" height="24.65" shape-rendering="crispEdges"/><rect fill="#1e1e1e" x="12.2" y="538.3" width="12.2" height="24.65" shape-rendering="crispEdges"/><rect fill="#1e1e1e" x="24.4" y="538.3" width="1390.8" height="24.65" shape-rendering="crispEdges"/><rect fill="#1e1e1e" x="1415.2" y="538.3" width="12.2" height="24.65" shape-rendering="crispEdges"/><rect fill="#1e1e1e" x="1427.4" y="538.3" width="12.2" height="24.65" shape-rendering="crispEdges"/><rect fill="#191919" x="0" y="562.7" width="12.2" height="24.65" shape-rendering="crispEdges"/><rect fill="#1e1e1e" x="12.2" y="562.7" width="12.2" height="24.65" shape-rendering="crispEdges"/><rect fill="#1e1e1e" x="24.4" y="562.7" width="1390.8" height="24.65" shape-rendering="crispEdges"/><rect fill="#1e1e1e" x="1415.2" y="562.7" width="12.2" height="24.65" shape-rendering="crispEdges"/><rect fill="#1e1e1e" x="1427.4" y="562.7" width="12.2" height="24.65" shape-rendering="crispEdges"/><rect fill="#191919" x="0" y="587.1" width="12.2" height="24.65" shape-rendering="crispEdges"/><rect fill="#1e1e1e" x="12.2" y="587.1" width="12.2" height="24.65" shape-rendering="crispEdges"/><rect fill="#1e1e1e" x="24.4" y="587.1" width="1390.8" height="24.65" shape-rendering="crispEdges"/><rect fill="#1e1e1e" x="1415.2" y="587.1" width="12.2" height="24.65" shape-rendering="crispEdges"/><rect fill="#1e1e1e" x="1427.4" y="587.1" width="12.2" height="24.65" shape-rendering="crispEdges"/><rect fill="#191919" x="0" y="611.5" width="12.2" height="24.65" shape-rendering="crispEdges"/><rect fill="#1e1e1e" x="12.2" y="611.5" width="12.2" height="24.65" shape-rendering="crispEdges"/><rect fill="#1e1e1e" x="24.4" y="611.5" width="1390.8" height="24.65" shape-rendering="crispEdges"/><rect fill="#1e1e1e" x="1415.2" y="611.5" width="12.2" height="24.65" shape-rendering="crispEdges"/><rect fill="#1e1e1e" x="1427.4" y="611.5" width="12.2" height="24.65" shape-rendering="crispEdges"/><rect fill="#191919" x="0" y="635.9" width="12.2" height="24.65" shape-rendering="crispEdges"/><rect fill="#1e1e1e" x="12.2" y="635.9" width="12.2" height="24.65" shape-rendering="crispEdges"/><rect fill="#1e1e1e" x="24.4" y="635.9" width="1390.8" height="24.65" shape-rendering="crispEdges"/><rect fill="#1e1e1e" x="1415.2" y="635.9" width="12.2" height="24.65" shape-rendering="crispEdges"/><rect fill="#1e1e1e" x="1427.4" y="635.9" width="12.2" height="24.65" shape-rendering="crispEdges"/><rect fill="#191919" x="0" y="660.3" width="12.2" height="24.65" shape-rendering="crispEdges"/><rect fill="#1e1e1e" x="12.2" y="660.3" width="12.2" height="24.65" shape-rendering="crispEdges"/><rect fill="#1e1e1e" x="24.4" y="660.3" width="1390.8" height="24.65" shape-rendering="crispEdges"/><rect fill="#1e1e1e" x="1415.2" y="660.3" width="12.2" height="24.65" shape-rendering="crispEdges"/><rect fill="#1e1e1e" x="1427.4" y="660.3" width="12.2" height="24.65" shape-rendering="crispEdges"/><rect fill="#191919" x="0" y="684.7" width="12.2" height="24.65" shape-rendering="crispEdges"/><rect fill="#1e1e1e" x="12.2" y="684.7" width="1415.2" height="24.65" shape-rendering="crispEdges"/><rect fill="#1e1e1e" x="1427.4" y="684.7" width="12.2" height="24.65" shape-rendering="crispEdges"/><rect fill="#1e1e1e" x="0" y="709.1" width="622.2" height="24.65" shape-rendering="crispEdges"/><rect fill="#1e1e1e" x="622.2" y="709.1" width="195.2" height="24.65" shape-rendering="crispEdges"/><rect fill="#1e1e1e" x="817.4" y="709.1" width="622.2" height="24.65" shape-rendering="crispEdges"/><rect fill="#1e1e1e" x="0" y="733.5" width="622.2" height="24.65" shape-rendering="crispEdges"/><rect fill="#1e1e1e" x="622.2" y="733.5" width="36.6" height="24.65" shape-rendering="crispEdges"/><rect fill="#1e1e1e" x="658.8" y="733.5" width="122" height="24.65" shape-rendering="crispEdges"/><rect fill="#1e1e1e" x="780.8" y="733.5" width="36.6" height="24.65" shape-rendering="crispEdges"/><rect fill="#1e1e1e" x="817.4" y="733.5" width="622.2" height="24.65" shape-rendering="crispEdges"/><rect fill="#1e1e1e" x="0" y="757.9" width="622.2" height="24.65" shape-rendering="crispEdges"/><rect fill="#1e1e1e" x="622.2" y="757.9" width="195.2" height="24.65" shape-rendering="crispEdges"/><rect fill="#1e1e1e" x="817.4" y="757.9" width="622.2" height="24.65" shape-rendering="crispEdges"/>
    <g class="terminal-2197858391-matrix">
    <text class="terminal-2197858391-r2" x="1439.6" y="20" textLength="12.2" clip-path="url(#terminal-2197858391-line-0)">
</text><text class="terminal-2197858391-r1" x="0" y="44.4" textLength="402.6" clip-path="url(#terminal-2197858391-line-1)">CCCB&#160;-&#160;Konfigurationen&#160;auswaehlen</text><text class="terminal-2197858391-r2" x="1439.6" y="44.4" textLength="12.2" clip-path="url(#terminal-2197858391-line-1)">
</text><text class="terminal-2197858391-r2" x="1439.6" y="68.8" textLength="12.2" clip-path="url(#terminal-2197858391-line-2)">
</text><text class="terminal-2197858391-r3" x="0" y="93.2" textLength="341.6" clip-path="url(#terminal-2197858391-line-3)">Pfad&#160;zum&#160;Konfig-Verzeichnis:</text><text class="terminal-2197858391-r3" x="719.8" y="93.2" textLength="317.2" clip-path="url(#terminal-2197858391-line-3)">Gewaehlte&#160;Konfigurationen:</text><text class="terminal-2197858391-r2" x="1439.6" y="93.2" textLength="12.2" clip-path="url(#terminal-2197858391-line-3)">
</text><text class="terminal-2197858391-r4" x="0" y="117.6" textLength="12.2" clip-path="url(#terminal-2197858391-line-4)">▊</text><text class="terminal-2197858391-r5" x="12.2" y="117.6" textLength="695.4" clip-path="url(#terminal-2197858391-line-4)">▔▔▔▔▔▔▔▔▔▔▔▔▔▔▔▔▔▔▔▔▔▔▔▔▔▔▔▔▔▔▔▔▔▔▔▔▔▔▔▔▔▔▔▔▔▔▔▔▔▔▔▔▔▔▔▔▔</text><text class="terminal-2197858391-r5" x="707.6" y="117.6" textLength="12.2" clip-path="url(#terminal-2197858391-line-4)">▎</text><text class="terminal-2197858391-r2" x="1439.6" y="117.6" textLength="12.2" clip-path="url(#terminal-2197858391-line-4)">
</text><text class="terminal-2197858391-r4" x="0" y="142" textLength="12.2" clip-path="url(#terminal-2197858391-line-5)">▊</text><text class="terminal-2197858391-r6" x="36.6" y="142" textLength="12.2" clip-path="url(#terminal-2197858391-line-5)">/</text><text class="terminal-2197858391-r7" x="48.8" y="142" textLength="170.8" clip-path="url(#terminal-2197858391-line-5)">path/to/config</text><text class="terminal-2197858391-r5" x="707.6" y="142" textLength="12.2" clip-path="url(#terminal-2197858391-line-5)">▎</text><text class="terminal-2197858391-r2" x="1439.6" y="142" textLength="12.2" clip-path="url(#terminal-2197858391-line-5)">
</text><text class="terminal-2197858391-r4" x="0" y="166.4" textLength="12.2" clip-path="url(#terminal-2197858391-line-6)">▊</text><text class="terminal-2197858391-r5" x="12.2" y="166.4" textLength="695.4" clip-path="url(#terminal-2197858391-line-6)">▁▁▁▁▁▁▁▁▁▁▁▁▁▁▁▁▁▁▁▁▁▁▁▁▁▁▁▁▁▁▁▁▁▁▁▁▁▁▁▁▁▁▁▁▁▁▁▁▁▁▁▁▁▁▁▁▁</text><text class="terminal-2197858391-r5" x="707.6" y="166.4" textLength="12.2" clip-path="url(#terminal-2197858391-line-6)">▎</text><text class="terminal-2197858391-r2" x="1439.6" y="166.4" textLength="12.2" clip-path="url(#terminal-2197858391-line-6)">
</text><text class="terminal-2197858391-r8" x="0" y="190.8" textLength="195.2" clip-path="url(#terminal-2197858391-line-7)">▔▔▔▔▔▔▔▔▔▔▔▔▔▔▔▔</text><text class="terminal-2197858391-r2" x="1439.6" y="190.8" textLength="12.2" clip-path="url(#terminal-2197858391-line-7)">
</text><text class="terminal-2197858391-r9" x="12.2" y="215.2" textLength="158.6" clip-path="url(#terminal-2197858391-line-8)">&#160;Hinzufuegen&#160;</text><text class="terminal-2197858391-r2" x="1439.6" y="215.2" textLength="12.2" clip-path="url(#terminal-2197858391-line-8)">
</text><text class="terminal-2197858391-r10" x="0" y="239.6" textLength="195.2" clip-path="url(#terminal-2197858391-line-9)">▁▁▁▁▁▁▁▁▁▁▁▁▁▁▁▁</text><text class="terminal-2197858391-r2" x="1439.6" y="239.6" textLength="12.2" clip-path="url(#terminal-2197858391-line-9)">
</text><text class="terminal-2197858391-r2" x="1439.6" y="264" textLength="12.2" clip-path="url(#terminal-2197858391-line-10)">
</text><text class="terminal-2197858391-r2" x="1439.6" y="288.4" textLength="12.2" clip-path="url(#terminal-2197858391-line-11)">
</text><text class="terminal-2197858391-r2" x="1439.6" y="312.8" textLength="12.2" clip-path="url(#terminal-2197858391-line-12)">
</text><text class="terminal-2197858391-r2" x="1439.6" y="337.2" textLength="12.2" clip-path="url(#terminal-2197858391-line-13)">
</text><text class="terminal-2197858391-r2" x="1439.6" y="361.6" textLength="12.2" clip-path="url(#terminal-2197858391-line-14)">
</text><text class="terminal-2197858391-r3" x="0" y="386" textLength="183" clip-path="url(#terminal-2197858391-line-15)">Konfig-Preview:</text><text class="terminal-2197858391-r2" x="1439.6" y="386" textLength="12.2" clip-path="url(#terminal-2197858391-line-15)">
</text><text class="terminal-2197858391-r4" x="0" y="410.4" textLength="12.2" clip-path="url(#terminal-2197858391-line-16)">▊</text><text class="terminal-2197858391-r12" x="12.2" y="410.4" textLength="1415.2" clip-path="url(#terminal-2197858391-line-16)">▔▔▔▔▔▔▔▔▔▔▔▔▔▔▔▔▔▔▔▔▔▔▔▔▔▔▔▔▔▔▔▔▔▔▔▔▔▔▔▔▔▔▔▔▔▔▔▔▔▔▔▔▔▔▔▔▔▔▔▔▔▔▔▔▔▔▔▔▔▔▔▔▔▔▔▔▔▔▔▔▔▔▔▔▔▔▔▔▔▔▔▔▔▔▔▔▔▔▔▔▔▔▔▔▔▔▔▔▔▔▔▔▔▔▔▔</text><text class="terminal-2197858391-r12" x="1427.4" y="410.4" textLength="12.2" clip-path="url(#terminal-2197858391-line-16)">▎</text><text class="terminal-2197858391-r2" x="1439.6" y="410.4" textLength="12.2" clip-path="url(#terminal-2197858391-line-16)">
</text><text class="terminal-2197858391-r4" x="0" y="434.8" textLength="12.2" clip-path="url(#terminal-2197858391-line-17)">▊</text><text class="terminal-2197858391-r12" x="1427.4" y="434.8" textLength="12.2" clip-path="url(#terminal-2197858391-line-17)">▎</text><text class="terminal-2197858391-r2" x="1439.6" y="434.8" textLength="12.2" clip-path="url(#terminal-2197858391-line-17)">
</text><text class="terminal-2197858391-r4" x="0" y="459.2" textLength="12.2" clip-path="url(#terminal-2197858391-line-18)">▊</text><text class="terminal-2197858391-r12" x="1427.4" y="459.2" textLength="12.2" clip-path="url(#terminal-2197858391-line-18)">▎</text><text class="terminal-2197858391-r2" x="1439.6" y="459.2" textLength="12.2" clip-path="url(#terminal-2197858391-line-18)">
</text><text class="terminal-2197858391-r4" x="0" y="483.6" textLength="12.2" clip-path="url(#terminal-2197858391-line-19)">▊</text><text class="terminal-2197858391-r12" x="1427.4" y="483.6" textLength="12.2" clip-path="url(#terminal-2197858391-line-19)">▎</text><text class="terminal-2197858391-r2" x="1439.6" y="483.6" textLength="12.2" clip-path="url(#terminal-2197858391-line-19)">
</text><text class="terminal-2197858391-r4" x="0" y="508" textLength="12.2" clip-path="url(#terminal-2197858391-line-20)">▊</text><text class="terminal-2197858391-r12" x="1427.4" y="508" textLength="12.2" clip-path="url(#terminal-2197858391-line-20)">▎</text><text class="terminal-2197858391-r2" x="1439.6" y="508" textLength="12.2" clip-path="url(#terminal-2197858391-line-20)">
</text><text class="terminal-2197858391-r4" x="0" y="532.4" textLength="12.2" clip-path="url(#terminal-2197858391-line-21)">▊</text><text class="terminal-2197858391-r12" x="1427.4" y="532.4" textLength="12.2" clip-path="url(#terminal-2197858391-line-21)">▎</text><text class="terminal-2197858391-r2" x="1439.6" y="532.4" textLength="12.2" clip-path="url(#terminal-2197858391-line-21)">
</text><text class="terminal-2197858391-r4" x="0" y="556.8" textLength="12.2" clip-path="url(#terminal-2197858391-line-22)">▊</text><text class="terminal-2197858391-r12" x="1427.4" y="556.8" textLength="12.2" clip-path="url(#terminal-2197858391-line-22)">▎</text><text class="terminal-2197858391-r2" x="1439.6" y="556.8" textLength="12.2" clip-path="url(#terminal-2197858391-line-22)">
</text><text class="terminal-2197858391-r4" x="0" y="581.2" textLength="12.2" clip-path="url(#terminal-2197858391-line-23)">▊</text><text class="terminal-2197858391-r12" x="1427.4" y="581.2" textLength="12.2" clip-path="url(#terminal-2197858391-line-23)">▎</text><text class="terminal-2197858391-r2" x="1439.6" y="581.2" textLength="12.2" clip-path="url(#terminal-2197858391-line-23)">
</text><text class="terminal-2197858391-r4" x="0" y="605.6" textLength="12.2" clip-path="url(#terminal-2197858391-line-24)">▊</text><text class="terminal-2197858391-r12" x="1427.4" y="605.6" textLength="12.2" clip-path="url(#terminal-2197858391-line-24)">▎</text><text class="terminal-2197858391-r2" x="1439.6" y="605.6" textLength="12.2" clip-path="url(#terminal-2197858391-line-24)">
</text><text class="terminal-2197858391-r4" x="0" y="630" textLength="12.2" clip-path="url(#terminal-2197858391-line-25)">▊</text><text class="terminal-2197858391-r12" x="1427.4" y="630" textLength="12.2" clip-path="url(#terminal-2197858391-line-25)">▎</text><text class="terminal-2197858391-r2" x="1439.6" y="630" textLength="12.2" clip-path="url(#terminal-2197858391-line-25)">
</text><text class="terminal-2197858391-r4" x="0" y="654.4" textLength="12.2" clip-path="url(#terminal-2197858391-line-26)">▊</text><text class="terminal-2197858391-r12" x="1427.4" y="654.4" textLength="12.2" clip-path="url(#terminal-2197858391-line-26)">▎</text><text class="terminal-2197858391-r2" x="1439.6" y="654.4" textLength="12.2" clip-path="url(#terminal-2197858391-line-26)">
</text><text class="terminal-2197858391-r4" x="0" y="678.8" textLength="12.2" clip-path="url(#terminal-2197858391-line-27)">▊</text><text class="terminal-2197858391-r12" x="1427.4" y="678.8" textLength="12.2" clip-path="url(#terminal-2197858391-line-27)">▎</text><text class="terminal-2197858391-r2" x="1439.6" y="678.8" textLength="12.2" clip-path="url(#terminal-2197858391-line-27)">
</text><text class="terminal-2197858391-r4" x="0" y="703.2" textLength="12.2" clip-path="url(#terminal-2197858391-line-28)">▊</text><text class="terminal-2197858391-r12" x="12.2" y="703.2" textLength="1415.2" clip-path="url(#terminal-2197858391-line-28)">▁▁▁▁▁▁▁▁▁▁▁▁▁▁▁▁▁▁▁▁▁▁▁▁▁▁▁▁▁▁▁▁▁▁▁▁▁▁▁▁▁▁▁▁▁▁▁▁▁▁▁▁▁▁▁▁▁▁▁▁▁▁▁▁▁▁▁▁▁▁▁▁▁▁▁▁▁▁▁▁▁▁▁▁▁▁▁▁▁▁▁▁▁▁▁▁▁▁▁▁▁▁▁▁▁▁▁▁▁▁▁▁▁▁▁▁</text><text class="terminal-2197858391-r12" x="1427.4" y="703.2" textLength="12.2" clip-path="url(#terminal-2197858391-line-28)">▎</text><text class="terminal-2197858391-r2" x="1439.6" y="703.2" textLength="12.2" clip-path="url(#terminal-2197858391-line-28)">
</text><text class="terminal-2197858391-r13" x="622.2" y="727.6" textLength="195.2" clip-path="url(#terminal-2197858391-line-29)">▔▔▔▔▔▔▔▔▔▔▔▔▔▔▔▔</text><text class="terminal-2197858391-r2" x="1439.6" y="727.6" textLength="12.2" clip-path="url(#terminal-2197858391-line-29)">
</text><text class="terminal-2197858391-r14" x="658.8" y="752" textLength="122" clip-path="url(#terminal-2197858391-line-30)">&#160;Weiter&#160;→&#160;</text><text class="terminal-2197858391-r2" x="1439.6" y="752" textLength="12.2" clip-path="url(#terminal-2197858391-line-30)">
</text><text class="terminal-2197858391-r15" x="622.2" y="776.4" textLength="195.2" clip-path="url(#terminal-2197858391-line-31)">▁▁▁▁▁▁▁▁▁▁▁▁▁▁▁▁</text>
    </g>
    </g>
</svg>
