<svg class="rich-terminal" viewBox="0 0 1458 830.8" xmlns="http://www.w3.org/2000/svg">
    <!-- Generated with Rich https://www.textualize.io -->
    <style>

    @font-face {
        font-family: "Fira Code";
        src: local("FiraCode-Regular"),
                url("https://cdnjs.cloudflare.com/ajax/libs/firacode/6.2.0/woff2/FiraCode-Regular.woff2") format("woff2"),
                url("https://cdnjs.cloudflare.com/ajax/libs/firacode/6.2.0/woff/FiraCode-Regular.woff") format("woff");
        font-style: normal;
        font-weight: 400;
    }
    @font-face {
        font-family: "Fira Code";
        src: local("FiraCode-Bold"),
                url("https://cdnjs.cloudflare.com/ajax/libs/firacode/6.2.0/woff2/FiraCode-Bold.woff2") format("woff2"),
                url("https://cdnjs.cloudflare.com/ajax/libs/firacode/6.2.0/woff/FiraCode-Bold.woff") format("woff");
        font-style: bold;
        font-weight: 700;
    }

    .terminal-4233282722-matrix {
        font-family: Fira Code, monospace;
        font-size: 20px;
        line-height: 24.4px;
        font-variant-east-asian: full-width;
    }

    .terminal-4233282722-title {
        font-size: 18px;
        font-weight: bold;
        font-family: arial;
    }

    .terminal-4233282722-r1 { fill: #eaeaea;font-weight: bold }
.terminal-4233282722-r2 { fill: #c5c8c6 }
.terminal-4233282722-r3 { fill: #a9a9a9 }
.terminal-4233282722-r4 { fill: #2d2d2d }
.terminal-4233282722-r5 { fill: #6b6b6b;font-weight: bold }
.terminal-4233282722-r6 { fill: #e0e0e0;font-weight: bold }
.terminal-4233282722-r7 { fill: #3a3a3a }
.terminal-4233282722-r8 { fill: #0d0d0d }
.terminal-4233282722-r9 { fill: #e0e0e0 }
    </style>

    <defs>
    <clipPath id="terminal-4233282722-clip-terminal">
      <rect x="0" y="0" width="1438.6" height="779.8" />
    </clipPath>
    <clipPath id="terminal-4233282722-line-0">
    <rect x="0" y="1.5" width="1439.6" height="24.65"/>
            </clipPath>
<clipPath id="terminal-4233282722-line-1">
    <rect x="0" y="25.9" width="1439.6" height="24.65"/>
            </clipPath>
<clipPath id="terminal-4233282722-line-2">
    <rect x="0" y="50.3" width="1439.6" height="24.65"/>
            </clipPath>
<clipPath id="terminal-4233282722-line-3">
    <rect x="0" y="74.7" width="1439.6" height="24.65"/>
            </clipPath>
<clipPath id="terminal-4233282722-line-4">
    <rect x="0" y="99.1" width="1439.6" height="24.65"/>
            </clipPath>
<clipPath id="terminal-4233282722-line-5">
    <rect x="0" y="123.5" width="1439.6" height="24.65"/>
            </clipPath>
<clipPath id="terminal-4233282722-line-6">
    <rect x="0" y="147.9" width="1439.6" height="24.65"/>
            </clipPath>
<clipPath id="terminal-4233282722-line-7">
    <rect x="0" y="172.3" width="1439.6" height="24.65"/>
            </clipPath>
<clipPath id="terminal-4233282722-line-8">
    <rect x="0" y="196.7" width="1439.6" height="24.65"/>
            </clipPath>
<clipPath id="terminal-4233282722-line-9">
    <rect x="0" y="221.1" width="1439.6" height="24.65"/>
            </clipPath>
<clipPath id="terminal-4233282722-line-10">
    <rect x="0" y="245.5" width="1439.6" height="24.65"/>
            </clipPath>
<clipPath id="terminal-4233282722-line-11">
    <rect x="0" y="269.9" width="1439.6" height="24.65"/>
            </clipPath>
<clipPath id="terminal-4233282722-line-12">
    <rect x="0" y="294.3" width="1439.6" height="24.65"/>
            </clipPath>
<clipPath id="terminal-4233282722-line-13">
    <rect x="0" y="318.7" width="1439.6" height="24.65"/>
            </clipPath>
<clipPath id="terminal-4233282722-line-14">
    <rect x="0" y="343.1" width="1439.6" height="24.65"/>
            </clipPath>
<clipPath id="terminal-4233282722-line-15">
    <rect x="0" y="367.5" width="1439.6" height="24.65"/>
            </clipPath>
<clipPath id="terminal-4233282722-line-16">
    <rect x="0" y="391.9" width="1439.6" height="24.65"/>
            </clipPath>
<clipPath id="terminal-4233282722-line-17">
    <rect x="0" y="416.3" width="1439.6" height="24.65"/>
            </clipPath>
<clipPath id="terminal-4233282722-line-18">
    <rect x="0" y="440.7" width="1439.6" height="24.65"/>
            </clipPath>
<clipPath id="terminal-4233282722-line-19">
    <rect x="0" y="465.1" width="1439.6" height="24.65"/>
            </clipPath>
<clipPath id="terminal-4233282722-line-20">
    <rect x="0" y="489.5" width="1439.6" height="24.65"/>
            </clipPath>
<clipPath id="terminal-4233282722-line-21">
    <rect x="0" y="513.9" width="1439.6" height="24.65"/>
            </clipPath>
<clipPath id="terminal-4233282722-line-22">
    <rect x="0" y="538.3" width="1439.6" height="24.65"/>
            </clipPath>
<clipPath id="terminal-4233282722-line-23">
    <rect x="0" y="562.7" width="1439.6" height="24.65"/>
            </clipPath>
<clipPath id="terminal-4233282722-line-24">
    <rect x="0" y="587.1" width="1439.6" height="24.65"/>
            </clipPath>
<clipPath id="terminal-4233282722-line-25">
    <rect x="0" y="611.5" width="1439.6" height="24.65"/>
            </clipPath>
<clipPath id="terminal-4233282722-line-26">
    <rect x="0" y="635.9" width="1439.6" height="24.65"/>
            </clipPath>
<clipPath id="terminal-4233282722-line-27">
    <rect x="0" y="660.3" width="1439.6" height="24.65"/>
            </clipPath>
<clipPath id="terminal-4233282722-line-28">
    <rect x="0" y="684.7" width="1439.6" height="24.65"/>
            </clipPath>
<clipPath id="terminal-4233282722-line-29">
    <rect x="0" y="709.1" width="1439.6" height="24.65"/>
            </clipPath>
<clipPath id="terminal-4233282722-line-30">
    <rect x="0" y="733.5" width="1439.6" height="24.65"/>
            </clipPath>
    </defs>

    <rect fill="#292929" stroke="rgba(255,255,255,0.35)" stroke-width="1" x="1" y="1" width="1456" height="828.8" rx="8"/><text class="terminal-4233282722-title" fill="#c5c8c6" text-anchor="middle" x="728" y="27">CCCB&#160;Benchmark</text>
            <g transform="translate(26,22)">
            <circle cx="0" cy="0" r="7" fill="#ff5f57"/>
            <circle cx="22" cy="0" r="7" fill="#febc2e"/>
            <circle cx="44" cy="0" r="7" fill="#28c840"/>
            </g>
        
    <g transform="translate(9, 41)" clip-path="url(#terminal-4233282722-clip-terminal)">
    <rect fill="#656565" x="0" y="1.5" width="317.2" height="24.65" shape-rendering="crispEdges"/><rect fill="#1e1e1e" x="317.2" y="1.5" width="1122.4" height="24.65" shape-rendering="crispEdges"/><rect fill="#656565" x="0" y="25.9" width="317.2" height="24.65" shape-rendering="crispEdges"/><rect fill="#1e1e1e" x="317.2" y="25.9" width="1122.4" height="24.65" shape-rendering="crispEdges"/><rect fill="#656565" x="0" y="50.3" width="317.2" height="24.65" shape-rendering="crispEdges"/><rect fill="#1e1e1e" x="317.2" y="50.3" width="1122.4" height="24.65" shape-rendering="crispEdges"/><rect fill="#1e1e1e" x="0" y="74.7" width="12.2" height="24.65" shape-rendering="crispEdges"/><rect fill="#6b6b6b" x="12.2" y="74.7" width="195.2" height="24.65" shape-rendering="crispEdges"/><rect fill="#1e1e1e" x="207.4" y="74.7" width="12.2" height="24.65" shape-rendering="crispEdges"/><rect fill="#1e1e1e" x="219.6" y="74.7" width="195.2" height="24.65" shape-rendering="crispEdges"/><rect fill="#1e1e1e" x="414.8" y="74.7" width="12.2" height="24.65" shape-rendering="crispEdges"/><rect fill="#1e1e1e" x="427" y="74.7" width="195.2" height="24.65" shape-rendering="crispEdges"/><rect fill="#1e1e1e" x="622.2" y="74.7" width="12.2" height="24.65" shape-rendering="crispEdges"/><rect fill="#1e1e1e" x="634.4" y="74.7" width="195.2" height="24.65" shape-rendering="crispEdges"/><rect fill="#1e1e1e" x="829.6" y="74.7" width="610" height="24.65" shape-rendering="crispEdges"/><rect fill="#1e1e1e" x="0" y="99.1" width="12.2" height="24.65" shape-rendering="crispEdges"/><rect fill="#6b6b6b" x="12.2" y="99.1" width="61" height="24.65" shape-rendering="crispEdges"/><rect fill="#ececec" x="73.2" y="99.1" width="73.2" height="24.65" shape-rendering="crispEdges"/><rect fill="#6b6b6b" x="146.4" y="99.1" width="61" height="24.65" shape-rendering="crispEdges"/><rect fill="#1e1e1e" x="207.4" y="99.1" width="12.2" height="24.65" shape-rendering="crispEdges"/><rect fill="#1e1e1e" x="219.6" y="99.1" width="36.6" height="24.65" shape-rendering="crispEdges"/><rect fill="#1e1e1e" x="256.2" y="99.1" width="109.8" height="24.65" shape-rendering="crispEdges"/><rect fill="#1e1e1e" x="366" y="99.1" width="48.8" height="24.65" shape-rendering="crispEdges"/><rect fill="#1e1e1e" x="414.8" y="99.1" width="12.2" height="24.65" shape-rendering="crispEdges"/><rect fill="#1e1e1e" x="427" y="99.1" width="24.4" height="24.65" shape-rendering="crispEdges"/><rect fill="#1e1e1e" x="451.4" y="99.1" width="134.2" height="24.65" shape-rendering="crispEdges"/><rect fill="#1e1e1e" x="585.6" y="99.1" width="36.6" height="24.65" shape-rendering="crispEdges"/><rect fill="#1e1e1e" x="622.2" y="99.1" width="12.2" height="24.65" shape-rendering="crispEdges"/><rect fill="#1e1e1e" x="634.4" y="99.1" width="12.2" height="24.65" shape-rendering="crispEdges"/><rect fill="#1e1e1e" x="646.6" y="99.1" width="158.6" height="24.65" shape-rendering="crispEdges"/><rect fill="#1e1e1e" x="805.2" y="99.1" width="24.4" height="24.65" shape-rendering="crispEdges"/><rect fill="#1e1e1e" x="829.6" y="99.1" width="610" height="24.65" shape-rendering="crispEdges"/><rect fill="#1e1e1e" x="0" y="123.5" width="12.2" height="24.65" shape-rendering="crispEdges"/><rect fill="#6b6b6b" x="12.2" y="123.5" width="195.2" height="24.65" shape-rendering="crispEdges"/><rect fill="#1e1e1e" x="207.4" y="123.5" width="12.2" height="24.65" shape-rendering="crispEdges"/><rect fill="#1e1e1e" x="219.6" y="123.5" width="195.2" height="24.65" shape-rendering="crispEdges"/><rect fill="#1e1e1e" x="414.8" y="123.5" width="12.2" height="24.65" shape-rendering="crispEdges"/><rect fill="#1e1e1e" x="427" y="123.5" width="195.2" height="24.65" shape-rendering="crispEdges"/><rect fill="#1e1e1e" x="622.2" y="123.5" width="12.2" height="24.65" shape-rendering="crispEdges"/><rect fill="#1e1e1e" x="634.4" y="123.5" width="195.2" height="24.65" shape-rendering="crispEdges"/><rect fill="#1e1e1e" x="829.6" y="123.5" width="610" height="24.65" shape-rendering="crispEdges"/><rect fill="#1e1e1e" x="0" y="147.9" width="24.4" height="24.65" shape-rendering="crispEdges"/><rect fill="#1e1e1e" x="24.4" y="147.9" width="268.4" height="24.65" shape-rendering="crispEdges"/><rect fill="#1e1e1e" x="292.8" y="147.9" width="1146.8" height="24.65" shape-rendering="crispEdges"/><rect fill="#1e1e1e" x="0" y="172.3" width="732" height="24.65" shape-rendering="crispEdges"/><rect fill="#1e1e1e" x="732" y="172.3" width="707.6" height="24.65" shape-rendering="crispEdges"/><rect fill="#1e1e1e" x="0" y="196.7" width="24.4" height="24.65" shape-rendering="crispEdges"/><rect fill="#1e1e1e" x="24.4" y="196.7" width="305" height="24.65" shape-rendering="crispEdges"/><rect fill="#1e1e1e" x="329.4" y="196.7" width="1110.2" height="24.65" shape-rendering="crispEdges"/><rect fill="#1e1e1e" x="0" y="221.1" width="732" height="24.65" shape-rendering="crispEdges"/><rect fill="#1e1e1e" x="732" y="221.1" width="707.6" height="24.65" shape-rendering="crispEdges"/><rect fill="#1e1e1e" x="0" y="245.5" width="24.4" height="24.65" shape-rendering="crispEdges"/><rect fill="#1e1e1e" x="24.4" y="245.5" width="231.8" height="24.65" shape-rendering="crispEdges"/><rect fill="#1e1e1e" x="256.2" y="245.5" width="1183.4" height="24.65" shape-rendering="crispEdges"/><rect fill="#1e1e1e" x="0" y="269.9" width="732" height="24.65" shape-rendering="crispEdges"/><rect fill="#1e1e1e" x="732" y="269.9" width="707.6" height="24.65" shape-rendering="crispEdges"/><rect fill="#1e1e1e" x="0" y="294.3" width="24.4" height="24.65" shape-rendering="crispEdges"/><rect fill="#1e1e1e" x="24.4" y="294.3" width="183" height="24.65" shape-rendering="crispEdges"/><rect fill="#1e1e1e" x="207.4" y="294.3" width="1232.2" height="24.65" shape-rendering="crispEdges"/><rect fill="#1e1e1e" x="0" y="318.7" width="732" height="24.65" shape-rendering="crispEdges"/><rect fill="#1e1e1e" x="732" y="318.7" width="707.6" height="24.65" shape-rendering="crispEdges"/><rect fill="#1e1e1e" x="0" y="343.1" width="24.4" height="24.65" shape-rendering="crispEdges"/><rect fill="#1e1e1e" x="24.4" y="343.1" width="280.6" height="24.65" shape-rendering="crispEdges"/><rect fill="#1e1e1e" x="305" y="343.1" width="1134.6" height="24.65" shape-rendering="crispEdges"/><rect fill="#1e1e1e" x="0" y="367.5" width="732" height="24.65" shape-rendering="crispEdges"/><rect fill="#1e1e1e" x="732" y="367.5" width="707.6" height="24.65" shape-rendering="crispEdges"/><rect fill="#1e1e1e" x="0" y="391.9" width="24.4" height="24.65" shape-rendering="crispEdges"/><rect fill="#1e1e1e" x="24.4" y="391.9" width="195.2" height="24.65" shape-rendering="crispEdges"/><rect fill="#1e1e1e" x="219.6" y="391.9" width="1220" height="24.65" shape-rendering="crispEdges"/><rect fill="#1e1e1e" x="0" y="416.3" width="732" height="24.65" shape-rendering="crispEdges"/><rect fill="#1e1e1e" x="732" y="416.3" width="707.6" height="24.65" shape-rendering="crispEdges"/><rect fill="#1e1e1e" x="0" y="440.7" width="1439.6" height="24.65" shape-rendering="crispEdges"/><rect fill="#1e1e1e" x="0" y="465.1" width="1439.6" height="24.65" shape-rendering="crispEdges"/><rect fill="#1e1e1e" x="0" y="489.5" width="1439.6" height="24.65" shape-rendering="crispEdges"/><rect fill="#1e1e1e" x="0" y="513.9" width="1439.6" height="24.65" shape-rendering="crispEdges"/><rect fill="#1e1e1e" x="0" y="538.3" width="1439.6" height="24.65" shape-rendering="crispEdges"/><rect fill="#1e1e1e" x="0" y="562.7" width="1439.6" height="24.65" shape-rendering="crispEdges"/><rect fill="#1e1e1e" x="0" y="587.1" width="1439.6" height="24.65" shape-rendering="crispEdges"/><rect fill="#1e1e1e" x="0" y="611.5" width="1439.6" height="24.65" shape-rendering="crispEdges"/><rect fill="#1e1e1e" x="0" y="635.9" width="1439.6" height="24.65" shape-rendering="crispEdges"/><rect fill="#1e1e1e" x="0" y="660.3" width="1439.6" height="24.65" shape-rendering="crispEdges"/><rect fill="#1e1e1e" x="0" y="684.7" width="475.8" height="24.65" shape-rendering="crispEdges"/><rect fill="#1e1e1e" x="475.8" y="684.7" width="963.8" height="24.65" shape-rendering="crispEdges"/><rect fill="#1e1e1e" x="0" y="709.1" width="512.4" height="24.65" shape-rendering="crispEdges"/><rect fill="#1e1e1e" x="512.4" y="709.1" width="195.2" height="24.65" shape-rendering="crispEdges"/><rect fill="#1e1e1e" x="707.6" y="709.1" width="24.4" height="24.65" shape-rendering="crispEdges"/><rect fill="#1e1e1e" x="732" y="709.1" width="195.2" height="24.65" shape-rendering="crispEdges"/><rect fill="#1e1e1e" x="927.2" y="709.1" width="512.4" height="24.65" shape-rendering="crispEdges"/><rect fill="#1e1e1e" x="0" y="733.5" width="512.4" height="24.65" shape-rendering="crispEdges"/><rect fill="#1e1e1e" x="512.4" y="733.5" width="24.4" height="24.65" shape-rendering="crispEdges"/><rect fill="#1e1e1e" x="536.8" y="733.5" width="134.2" height="24.65" shape-rendering="crispEdges"/><rect fill="#1e1e1e" x="671" y="733.5" width="36.6" height="24.65" shape-rendering="crispEdges"/><rect fill="#1e1e1e" x="707.6" y="733.5" width="24.4" height="24.65" shape-rendering="crispEdges"/><rect fill="#1e1e1e" x="732" y="733.5" width="36.6" height="24.65" shape-rendering="crispEdges"/><rect fill="#1e1e1e" x="768.6" y="733.5" width="109.8" height="24.65" shape-rendering="crispEdges"/><rect fill="#1e1e1e" x="878.4" y="733.5" width="48.8" height="24.65" shape-rendering="crispEdges"/><rect fill="#1e1e1e" x="927.2" y="733.5" width="512.4" height="24.65" shape-rendering="crispEdges"/><rect fill="#1e1e1e" x="0" y="757.9" width="512.4" height="24.65" shape-rendering="crispEdges"/><rect fill="#1e1e1e" x="512.4" y="757.9" width="195.2" height="24.65" shape-rendering="crispEdges"/><rect fill="#1e1e1e" x="707.6" y="757.9" width="24.4" height="24.65" shape-rendering="crispEdges"/><rect fill="#1e1e1e" x="732" y="757.9" width="195.2" height="24.65" shape-rendering="crispEdges"/><rect fill="#1e1e1e" x="927.2" y="757.9" width="512.4" height="24.65" shape-rendering="crispEdges"/>
    <g class="terminal-4233282722-matrix">
    <text class="terminal-4233282722-r2" x="1439.6" y="20" textLength="12.2" clip-path="url(#terminal-4233282722-line-0)">
</text><text class="terminal-4233282722-r1" x="0" y="44.4" textLength="317.2" clip-path="url(#terminal-4233282722-line-1)">CCCB&#160;-&#160;Aufgaben&#160;auswaehlen</text><text class="terminal-4233282722-r2" x="1439.6" y="44.4" textLength="12.2" clip-path="url(#terminal-4233282722-line-1)">
</text><text class="terminal-4233282722-r2" x="1439.6" y="68.8" textLength="12.2" clip-path="url(#terminal-4233282722-line-2)">
</text><text class="terminal-4233282722-r3" x="12.2" y="93.2" textLength="195.2" clip-path="url(#terminal-4233282722-line-3)">▔▔▔▔▔▔▔▔▔▔▔▔▔▔▔▔</text><text class="terminal-4233282722-r4" x="219.6" y="93.2" textLength="195.2" clip-path="url(#terminal-4233282722-line-3)">▔▔▔▔▔▔▔▔▔▔▔▔▔▔▔▔</text><text class="terminal-4233282722-r4" x="427" y="93.2" textLength="195.2" clip-path="url(#terminal-4233282722-line-3)">▔▔▔▔▔▔▔▔▔▔▔▔▔▔▔▔</text><text class="terminal-4233282722-r4" x="634.4" y="93.2" textLength="195.2" clip-path="url(#terminal-4233282722-line-3)">▔▔▔▔▔▔▔▔▔▔▔▔▔▔▔▔</text><text class="terminal-4233282722-r2" x="1439.6" y="93.2" textLength="12.2" clip-path="url(#terminal-4233282722-line-3)">
</text><text class="terminal-4233282722-r5" x="73.2" y="117.6" textLength="73.2" clip-path="url(#terminal-4233282722-line-4)">&#160;Alle&#160;</text><text class="terminal-4233282722-r6" x="256.2" y="117.6" textLength="109.8" clip-path="url(#terminal-4233282722-line-4)">&#160;Codegen&#160;</text><text class="terminal-4233282722-r6" x="451.4" y="117.6" textLength="134.2" clip-path="url(#terminal-4233282722-line-4)">&#160;Debugging&#160;</text><text class="terminal-4233282722-r6" x="646.6" y="117.6" textLength="158.6" clip-path="url(#terminal-4233282722-line-4)">&#160;Refactoring&#160;</text><text class="terminal-4233282722-r2" x="1439.6" y="117.6" textLength="12.2" clip-path="url(#terminal-4233282722-line-4)">
</text><text class="terminal-4233282722-r7" x="12.2" y="142" textLength="195.2" clip-path="url(#terminal-4233282722-line-5)">▁▁▁▁▁▁▁▁▁▁▁▁▁▁▁▁</text><text class="terminal-4233282722-r8" x="219.6" y="142" textLength="195.2" clip-path="url(#terminal-4233282722-line-5)">▁▁▁▁▁▁▁▁▁▁▁▁▁▁▁▁</text><text class="terminal-4233282722-r8" x="427" y="142" textLength="195.2" clip-path="url(#terminal-4233282722-line-5)">▁▁▁▁▁▁▁▁▁▁▁▁▁▁▁▁</text><text class="terminal-4233282722-r8" x="634.4" y="142" textLength="195.2" clip-path="url(#terminal-4233282722-line-5)">▁▁▁▁▁▁▁▁▁▁▁▁▁▁▁▁</text><text class="terminal-4233282722-r2" x="1439.6" y="142" textLength="12.2" clip-path="url(#terminal-4233282722-line-5)">
</text><text class="terminal-4233282722-r9" x="24.4" y="166.4" textLength="268.4" clip-path="url(#terminal-4233282722-line-6)">&#160;Memory&#160;Leak&#160;Debugging</text><text class="terminal-4233282722-r2" x="1439.6" y="166.4" textLength="12.2" clip-path="url(#terminal-4233282722-line-6)">
</text><text class="terminal-4233282722-r9" x="0" y="190.8" textLength="732" clip-path="url(#terminal-4233282722-line-7)">Debug&#160;and&#160;fix&#160;a&#160;memory&#160;leak&#160;in&#160;a&#160;server&#160;application&#160;with&#160;an&#160;</text><text class="terminal-4233282722-r2" x="1439.6" y="190.8" textLength="12.2" clip-path="url(#terminal-4233282722-line-7)">
</text><text class="terminal-4233282722-r9" x="24.4" y="215.2" textLength="305" clip-path="url(#terminal-4233282722-line-8)">&#160;Race&#160;Condition&#160;Debugging</text><text class="terminal-4233282722-r2" x="1439.6" y="215.2" textLength="12.2" clip-path="url(#terminal-4233282722-line-8)">
</text><text class="terminal-4233282722-r9" x="0" y="239.6" textLength="732" clip-path="url(#terminal-4233282722-line-9)">Debug&#160;and&#160;fix&#160;a&#160;race&#160;condition&#160;in&#160;a&#160;multi-threaded&#160;counter&#160;a</text><text class="terminal-4233282722-r2" x="1439.6" y="239.6" textLength="12.2" clip-path="url(#terminal-4233282722-line-9)">
</text><text class="terminal-4233282722-r9" x="24.4" y="264" textLength="231.8" clip-path="url(#terminal-4233282722-line-10)">&#160;REST&#160;API&#160;erstellen</text><text class="terminal-4233282722-r2" x="1439.6" y="264" textLength="12.2" clip-path="url(#terminal-4233282722-line-10)">
</text><text class="terminal-4233282722-r9" x="0" y="288.4" textLength="732" clip-path="url(#terminal-4233282722-line-11)">Implement&#160;a&#160;FastAPI&#160;REST&#160;API&#160;with&#160;CRUD&#160;operations&#160;for&#160;a&#160;simp</text><text class="terminal-4233282722-r2" x="1439.6" y="288.4" textLength="12.2" clip-path="url(#terminal-4233282722-line-11)">
</text><text class="terminal-4233282722-r9" x="24.4" y="312.8" textLength="183" clip-path="url(#terminal-4233282722-line-12)">&#160;Click&#160;CLI&#160;Tool</text><text class="terminal-4233282722-r2" x="1439.6" y="312.8" textLength="12.2" clip-path="url(#terminal-4233282722-line-12)">
</text><text class="terminal-4233282722-r9" x="0" y="337.2" textLength="732" clip-path="url(#terminal-4233282722-line-13)">Implement&#160;a&#160;Click-based&#160;CLI&#160;tool&#160;with&#160;multiple&#160;subcommands&#160;f</text><text class="terminal-4233282722-r2" x="1439.6" y="337.2" textLength="12.2" clip-path="url(#terminal-4233282722-line-13)">
</text><text class="terminal-4233282722-r9" x="24.4" y="361.6" textLength="280.6" clip-path="url(#terminal-4233282722-line-14)">&#160;God&#160;Object&#160;Refactoring</text><text class="terminal-4233282722-r2" x="1439.6" y="361.6" textLength="12.2" clip-path="url(#terminal-4233282722-line-14)">
</text><text class="terminal-4233282722-r9" x="0" y="386" textLength="732" clip-path="url(#terminal-4233282722-line-15)">Refactor&#160;a&#160;monolithic&#160;AppManager&#160;class&#160;into&#160;multiple&#160;focused</text><text class="terminal-4233282722-r2" x="1439.6" y="386" textLength="12.2" clip-path="url(#terminal-4233282722-line-15)">
</text><text class="terminal-4233282722-r9" x="24.4" y="410.4" textLength="195.2" clip-path="url(#terminal-4233282722-line-16)">&#160;Async&#160;Migration</text><text class="terminal-4233282722-r2" x="1439.6" y="410.4" textLength="12.2" clip-path="url(#terminal-4233282722-line-16)">
</text><text class="terminal-4233282722-r9" x="0" y="434.8" textLength="732" clip-path="url(#terminal-4233282722-line-17)">Refactor&#160;a&#160;synchronous&#160;HTTP&#160;fetching&#160;application&#160;to&#160;use&#160;asyn</text><text class="terminal-4233282722-r2" x="1439.6" y="434.8" textLength="12.2" clip-path="url(#terminal-4233282722-line-17)">
</text><text class="terminal-4233282722-r2" x="1439.6" y="459.2" textLength="12.2" clip-path="url(#terminal-4233282722-line-18)">
</text><text class="terminal-4233282722-r2" x="1439.6" y="483.6" textLength="12.2" clip-path="url(#terminal-4233282722-line-19)">
</text><text class="terminal-4233282722-r2" x="1439.6" y="508" textLength="12.2" clip-path="url(#terminal-4233282722-line-20)">
</text><text class="terminal-4233282722-r2" x="1439.6" y="532.4" textLength="12.2" clip-path="url(#terminal-4233282722-line-21)">
</text><text class="terminal-4233282722-r2" x="1439.6" y="556.8" textLength="12.2" clip-path="url(#terminal-4233282722-line-22)">
</text><text class="terminal-4233282722-r2" x="1439.6" y="581.2" textLength="12.2" clip-path="url(#terminal-4233282722-line-23)">
</text><text class="terminal-4233282722-r2" x="1439.6" y="605.6" textLength="12.2" clip-path="url(#terminal-4233282722-line-24)">
</text><text class="terminal-4233282722-r2" x="1439.6" y="630" textLength="12.2" clip-path="url(#terminal-4233282722-line-25)">
</text><text class="terminal-4233282722-r2" x="1439.6" y="654.4" textLength="12.2" clip-path="url(#terminal-4233282722-line-26)">
</text><text class="terminal-4233282722-r2" x="1439.6" y="678.8" textLength="12.2" clip-path="url(#terminal-4233282722-line-27)">
</text><text class="terminal-4233282722-r9" x="0" y="703.2" textLength="475.8" clip-path="url(#terminal-4233282722-line-28)">6&#160;Aufgaben&#160;×&#160;2&#160;Configs&#160;=&#160;12&#160;Durchlaeufe</text><text class="terminal-4233282722-r2" x="1439.6" y="703.2" textLength="12.2" clip-path="url(#terminal-4233282722-line-28)">
</text><text class="terminal-4233282722-r4" x="512.4" y="727.6" textLength="195.2" clip-path="url(#terminal-4233282722-line-29)">▔▔▔▔▔▔▔▔▔▔▔▔▔▔▔▔</text><text class="terminal-4233282722-r4" x="732" y="727.6" textLength="195.2" clip-path="url(#terminal-4233282722-line-29)">▔▔▔▔▔▔▔▔▔▔▔▔▔▔▔▔</text><text class="terminal-4233282722-r2" x="1439.6" y="727.6" textLength="12.2" clip-path="url(#terminal-4233282722-line-29)">
</text><text class="terminal-4233282722-r6" x="536.8" y="752" textLength="134.2" clip-path="url(#terminal-4233282722-line-30)">&#160;←&#160;Zurueck&#160;</text><text class="terminal-4233282722-r6" x="768.6" y="752" textLength="109.8" clip-path="url(#terminal-4233282722-line-30)">&#160;Start&#160;▶&#160;</text><text class="terminal-4233282722-r2" x="1439.6" y="752" textLength="12.2" clip-path="url(#terminal-4233282722-line-30)">
</text><text class="terminal-4233282722-r8" x="512.4" y="776.4" textLength="195.2" clip-path="url(#terminal-4233282722-line-31)">▁▁▁▁▁▁▁▁▁▁▁▁▁▁▁▁</text><text class="terminal-4233282722-r8" x="732" y="776.4" textLength="195.2" clip-path="url(#terminal-4233282722-line-31)">▁▁▁▁▁▁▁▁▁▁▁▁▁▁▁▁</text>
    </g>
    </g>
</svg>
